<?xml version="1.0" standalone="no"?>
<!DOCTYPE svg PUBLIC "-//W3C//DTD SVG 20010904//EN"
 "http://www.w3.org/TR/2001/REC-SVG-20010904/DTD/svg10.dtd">
<svg version="1.0" xmlns="http://www.w3.org/2000/svg"
 width="540.000000pt" height="540.000000pt" viewBox="0 0 540.000000 540.000000"
 preserveAspectRatio="xMidYMid meet">
<metadata>
Created by potrace 1.11, written by Peter Selinger 2001-2013
</metadata>
<g transform="translate(0.000000,540.000000) scale(0.100000,-0.100000)"
fill="#000000" stroke="none">
<path d="M3252 3935 l-433 -432 -182 181 c-129 129 -197 189 -232 206 l-50 24
-500 1 c-559 0 -534 3 -602 -72 -56 -63 -65 -150 -25 -230 23 -44 43 -63 92
-89 30 -16 65 -18 256 -20 199 -2 226 -4 260 -22 146 -75 156 -272 19 -357
-44 -27 -58 -30 -159 -35 -135 -6 -172 -23 -226 -100 -21 -29 -25 -46 -25
-105 1 -75 15 -107 65 -153 36 -33 79 -49 150 -56 70 -7 103 -22 142 -63 81
-85 74 -230 -13 -295 -71 -53 -62 -52 -434 -53 -339 -1 -351 -2 -392 -23 -141
-73 -148 -272 -13 -357 51 -32 68 -34 434 -35 283 -1 312 -3 346 -20 41 -21
86 -70 102 -109 43 -110 -25 -245 -137 -272 -16 -4 119 -7 301 -8 287 -1 339
1 385 16 48 15 74 37 247 207 l193 190 432 -432 433 -433 514 3 c505 3 516 3
555 24 61 33 115 91 142 153 21 47 24 67 21 126 -3 46 -13 85 -28 115 -16 31
-211 233 -631 654 -335 335 -609 611 -609 615 0 3 276 282 613 621 409 410
620 628 633 655 14 29 19 62 19 121 0 98 -25 154 -96 218 -78 70 -74 70 -634
71 l-500 1 -433 -431z"/>
<path d="M1085 3071 c-44 -19 -91 -69 -107 -110 -52 -138 55 -288 201 -280 60
3 88 15 133 58 104 97 74 273 -57 332 -22 10 -60 19 -85 19 -25 0 -63 -9 -85
-19z"/>
<path d="M1600 2592 c-51 -26 -75 -65 -74 -120 0 -55 24 -96 66 -118 119 -61
247 70 178 183 -37 62 -110 86 -170 55z"/>
<path d="M514 2253 c-122 -41 -175 -193 -106 -305 92 -149 328 -113 371 56 40
161 -110 302 -265 249z"/>
</g>
</svg>
